#!OML:ASF Y:\EmotionMaleHayes\Project 1\Capture day 1\Session 1\Male1.ASF
:FULLY-SPECIFIED
:DEGREES
1715
root 25.2655 17.571 -15.9967 539.902 208.575 191.802
lowerback 5.69492 0.666333 4.1487
upperback 4.79122 0.960804 3.18123
thorax 1.76905 0.516011 0.913287
lowerneck -26.4065 0.183233 3.6278
upperneck 26.1923 0.647015 -6.17899
head 13.2416 -0.257373 -2.92917
rclavicle 3.65764e-014 3.49861e-014
rhumerus 39.7854 7.79776 -35.8523
rradius 41.065
rwrist -6.91836
rhand -7.19235 -31.8743
rfingers 7.12502
rthumb 18.6858 -60.9968
lclavicle 3.65764e-014 3.49861e-014
lhumerus 42.2384 -13.2715 23.3994
lradius 43.3783
lwrist 9.25083
lhand -16.608 -26.2814
lfingers 7.12502
lthumb 9.61359 3.47925
rfemur 9.70934 -2.34564 5.12886
rtibia 3.93193
rfoot -16.537 -8.56554
rtoes -4.34181
lfemur -7.29594 -7.14439 -17.8096
ltibia 23.8237
lfoot -8.1158 -2.08738
ltoes -1.86456
1716
root 25.2166 17.5697 -15.9435 539.932 208.794 191.46
lowerback 5.93964 0.557371 4.07709
upperback 4.96256 0.810229 3.57995
thorax 1.80297 0.431223 1.37034
lowerneck -26.6562 0.37545 3.50392
upperneck 26.0703 1.09268 -6.57703
head 13.2746 -0.136872 -2.9839
rclavicle -1.43125e-014 6.36111e-015
rhumerus 40.4205 7.91637 -36.059
rradius 41.0272
rwrist -6.23324
rhand -6.3734 -31.4493
rfingers 7.12502
rthumb 19.4734 -60.4941
lclavicle -1.43125e-014 6.36111e-015
lhumerus 41.7615 -12.8046 23.7802
lradius 43.3146
lwrist 8.83515
lhand -16.7875 -26.5182
lfingers 7.12502
lthumb 9.44042 3.25032
rfemur 9.88544 -2.83655 5.31417
rtibia 4.30153
rfoot -16.5749 -7.97231
rtoes -5.02734
lfemur -7.45515 -6.74028 -17.5017
ltibia 22.5894
lfoot -8.47032 -2.05169
ltoes -3.02486
1717
root 25.1811 17.5678 -15.8861 540.278 208.931 190.905
lowerback 5.98041 0.304776 4.24115
upperback 5.05169 0.468519 4.03047
thorax 1.87147 0.255921 1.76034
lowerneck -26.6589 0.702549 3.41017
upperneck 25.8176 1.70492 -6.93538
head 13.2177 0.0690545 -2.98844
rclavicle 3.89618e-014 -6.36111e-015
rhumerus 41.3841 8.83981 -35.2257
rradius 41.1742
rwrist -6.7844
rhand -6.13105 -31.6053
rfingers 7.12502
rthumb 19.7064 -60.6264
lclavicle 3.89618e-014 -6.36111e-015
lhumerus 40.82 -12.2379 24.0306
lradius 43.4129
lwrist 8.66728
lhand -16.5721 -26.9232
lfingers 7.12502
lthumb 9.64817 2.8358
rfemur 10.3815 -1.27423 6.46221
rtibia 3.4235
rfoot -16.7004 -9.17299
rtoes -3.95608
lfemur -8.05114 -6.033 -17.0951
ltibia 21.2922
lfoot -8.60531 -1.66285
ltoes -10.5107
1718
root 25.1636 17.5703 -15.8325 540.717 209.359 190.387
lowerback 6.16378 0.29847 4.81467
upperback 4.92945 0.501022 4.18025
thorax 1.65021 0.280139 1.59178
lowerneck -26.3474 0.797408 3.27554
upperneck 25.6816 1.87627 -6.87118
head 13.1099 0.144421 -2.89988
rclavicle 3.26007e-014 -2.22639e-014
rhumerus 41.6251 9.48826 -34.8589
rradius 41.1844
rwrist -7.0312
rhand -5.93642 -31.6179
rfingers 7.12502
rthumb 19.8935 -60.6197
lclavicle 3.26007e-014 -2.22639e-014
lhumerus 40.626 -12.3585 23.7278
lradius 43.436
lwrist 8.94647
lhand -16.5085 -26.7024
lfingers 7.12502
lthumb 9.70961 3.05378
rfemur 9.82536 -1.82091 6.67063
rtibia 4.20319
rfoot -16.5757 -8.33325
rtoes -6.84754
lfemur -8.77683 -5.91321 -16.7075
ltibia 20.3626
lfoot -8.70567 -1.41463
ltoes -7.28544
1719
root 25.1369 17.5745 -15.769 540.628 209.663 190.76
lowerback 6.27766 0.354635 4.60804
upperback 4.88982 0.579353 4.09991
thorax 1.54331 0.313947 1.61862
lowerneck -26.1403 0.805516 3.22178
upperneck 25.5128 1.89621 -6.8408
head 13.0004 0.156306 -2.86719
rclavicle -4.45278e-014 -9.54166e-015
rhumerus 41.5267 9.29885 -35.7702
rradius 40.8866
rwrist -5.83029
rhand -5.42714 -31.1423
rfingers 7.12502
rthumb 20.383 -60.0925
lclavicle -4.45278e-014 -9.54166e-015
lhumerus 40.7135 -12.5457 23.4041
lradius 43.4729
lwrist 9.04246
lhand -16.9079 -26.3154
lfingers 7.12502
lthumb 9.32424 3.45844
rfemur 9.90746 -1.82619 6.21477
rtibia 4.22578
rfoot -16.4211 -8.24046
rtoes -8.12898
lfemur -9.24853 -6.1501 -17.3764
ltibia 19.4321
lfoot -8.80305 -1.26281
ltoes -2.3144
1720
root 25.1075 17.57 -15.6978 540.529 209.774 191.289
lowerback 6.15559 0.292187 4.04502
upperback 4.97668 0.456568 4.18541
thorax 1.69271 0.238633 2.02897
lowerneck -26.2177 0.919703 3.20297
upperneck 25.2755 2.15849 -7.17418
head 12.9431 0.222372 -2.94086
rclavicle -4.92986e-014 -2.8625e-014
rhumerus 41.8691 9.08324 -36.5626
rradius 40.4997
rwrist -4.56914
rhand -5.23002 -30.8849
rfingers 7.12502
rthumb 20.5724 -59.8148
lclavicle -4.92986e-014 -2.8625e-014
lhumerus 40.3922 -12.2615 23.4902
lradius 43.6004
lwrist 8.95228
lhand -17.1589 -26.3954
lfingers 7.12502
lthumb 9.08206 3.38904
rfemur 10.2996 -1.18514 5.89436
rtibia 3.65108
rfoot -16.3981 -8.87325
rtoes -6.37676
lfemur -9.83518 -6.15652 -18.23
ltibia 18.4551
lfoot -8.87839 -1.04049
ltoes -3.00799
1721
root 25.0869 17.5621 -15.6272 540.574 209.917 191.702
lowerback 6.04306 0.169543 3.70328
upperback 5.01388 0.268606 4.24875
thorax 1.79175 0.135351 2.2951
lowerneck -26.3943 1.05863 3.00065
upperneck 25.1772 2.4896 -7.35249
head 12.9632 0.319366 -2.91491
rclavicle 2.38542e-014 -2.22639e-014
rhumerus 42.3694 8.57391 -38.1917
rradius 39.7397
rwrist -2.53332
rhand -4.8396 -30.2757
rfingers 7.12502
rthumb 20.9475 -59.1646
lclavicle 2.38542e-014 -2.22639e-014
lhumerus 39.9099 -11.8468 23.6049
lradius 43.7099
lwrist 8.95727
lhand -17.0331 -26.6151
lfingers 7.12502
lthumb 9.20343 3.16404
rfemur 9.96718 -2.42479 4.89864
rtibia 4.27674
rfoot -16.3232 -7.60748
rtoes -6.12748
lfemur -10.624 -6.01565 -18.9656
ltibia 17.5327
lfoot -8.74201 -0.746946
ltoes -5.99155
